<svg xmlns="http://www.w3.org/2000/svg" xmlns:xlink="http://www.w3.org/1999/xlink" viewBox="0 0 343.82 221.32"><defs><style>.cls-1,.cls-23{fill:none;}.cls-2{isolation:isolate;}.cls-3{clip-path:url(#clip-path);}.cls-4{fill:#65878b;}.cls-5{clip-path:url(#clip-path-2);}.cls-6{fill:#66898d;}.cls-7{fill:#688a8f;}.cls-8{fill:#698c91;}.cls-9{fill:#6b8e93;}.cls-10{fill:#6c9095;}.cls-11{fill:#6d9297;}.cls-12{clip-path:url(#clip-path-3);}.cls-13{clip-path:url(#clip-path-4);}.cls-14{fill:#7da6ac;}.cls-15{fill:#1d1d1b;}.cls-15,.cls-17,.cls-23,.cls-24,.cls-25,.cls-26{stroke:#1d1d1b;stroke-miterlimit:10;}.cls-16{fill:#fff;}.cls-17,.cls-19{fill:#585f5f;}.cls-18,.cls-24{fill:#798d90;}.cls-20,.cls-25{fill:#9f3416;}.cls-21{fill:#56584d;}.cls-22{fill:#aa2417;}.cls-26{fill:#d1eaef;}</style><clipPath id="clip-path"><path class="cls-1" d="M212.43,205.86l-9.28-5.9a80.47,80.47,0,0,1-28.77-31.64l9.28,5.9A80.47,80.47,0,0,0,212.43,205.86Z"/></clipPath><clipPath id="clip-path-2"><path class="cls-1" d="M297.36,61.62l9.28,5.9a84,84,0,0,0-47.32-12.93,86.93,86.93,0,0,0-75.09,46.86L175,95.54A86.93,86.93,0,0,1,250,48.68,84,84,0,0,1,297.36,61.62Z"/></clipPath><clipPath id="clip-path-3"><path class="cls-1" d="M146.68,65.77l9.28,5.9A96.31,96.31,0,0,0,101.81,57.1l-9.28-5.9A96.31,96.31,0,0,1,146.68,65.77Z"/></clipPath><clipPath id="clip-path-4"><path class="cls-1" d="M48.06,206.72l-9.28-5.9C16.13,186.45,1.4,162.75,1.34,135.6c-.11-45.35,40.72-83.13,91.19-84.4l9.28,5.9c-50.47,1.27-91.3,39-91.19,84.4C10.69,168.65,25.42,192.34,48.06,206.72Z"/></clipPath></defs><title>Middel 1</title><g id="Laag_2" data-name="Laag 2"><g id="Logo"><g id="_Groep_" data-name="&lt;Groep&gt;"><g class="cls-2"><g class="cls-2"><g class="cls-3"><g class="cls-2"><path class="cls-4" d="M212.43,205.86l-9.28-5.9a80.47,80.47,0,0,1-28.77-31.64l9.28,5.9a80.47,80.47,0,0,0,28.77,31.64"/></g></g></g><g class="cls-2"><g class="cls-5"><g class="cls-2"><path class="cls-4" d="M184.24,101.44,175,95.54a85.76,85.76,0,0,1,22.82-27.82l9.28,5.9a85.76,85.76,0,0,0-22.82,27.82"/><path class="cls-6" d="M207.06,73.61l-9.28-5.9a87.34,87.34,0,0,1,13.86-9.06l9.28,5.9a87.34,87.34,0,0,0-13.86,9.06"/><path class="cls-7" d="M220.93,64.55l-9.28-5.9A87.08,87.08,0,0,1,225,53l9.28,5.9a87.08,87.08,0,0,0-13.36,5.66"/><path class="cls-8" d="M234.28,58.89,225,53a87,87,0,0,1,14.15-3.36l9.28,5.9a87,87,0,0,0-14.15,3.36"/><path class="cls-9" d="M248.43,55.53l-9.28-5.9a87.77,87.77,0,0,1,10.9-1q3-.07,5.87,0l9.28,5.9q-2.91-.12-5.87,0a87.77,87.77,0,0,0-10.9,1"/><path class="cls-10" d="M265.2,54.63l-9.28-5.9a84.49,84.49,0,0,1,26.81,5.52l9.28,5.9a84.49,84.49,0,0,0-26.81-5.52"/><path class="cls-11" d="M292,60.15l-9.28-5.9a82.53,82.53,0,0,1,14.64,7.36l9.28,5.9A82.53,82.53,0,0,0,292,60.15"/></g></g></g><g class="cls-2"><g class="cls-12"><g class="cls-2"><path class="cls-9" d="M101.81,57.1l-9.28-5.9q3.47-.09,6.88.06l9.28,5.9q-3.41-.14-6.88-.06"/><path class="cls-10" d="M108.69,57.16l-9.28-5.9a97.78,97.78,0,0,1,31.23,6.44l9.28,5.9a97.78,97.78,0,0,0-31.23-6.44"/><path class="cls-11" d="M139.92,63.59l-9.28-5.9a91.55,91.55,0,0,1,16,8.08l9.28,5.9a91.55,91.55,0,0,0-16-8.08"/></g></g></g><g class="cls-2"><g class="cls-13"><g class="cls-2"><path class="cls-4" d="M48.06,206.72l-9.28-5.9C16.13,186.45,1.4,162.75,1.34,135.6,1.28,110.68,13.58,88,33,72.5l9.28,5.9c-19.47,15.55-31.77,38.18-31.71,63.1.07,27.15,14.79,50.85,37.43,65.22"/><path class="cls-6" d="M42.33,78.4,33,72.5a95.35,95.35,0,0,1,15.12-9.87l9.28,5.9A95.35,95.35,0,0,0,42.33,78.4"/><path class="cls-7" d="M57.46,68.53l-9.28-5.9a98.72,98.72,0,0,1,15.16-6.41l9.28,5.9a98.72,98.72,0,0,0-15.16,6.41"/><path class="cls-8" d="M72.61,62.12l-9.28-5.9a101,101,0,0,1,16.43-3.9L89,58.22a101,101,0,0,0-16.43,3.9"/><path class="cls-9" d="M89,58.22l-9.28-5.9a103,103,0,0,1,12.76-1.12l9.28,5.9A103,103,0,0,0,89,58.22"/></g></g></g><path class="cls-14" d="M101.81,57.1c36.23-.91,67.59,17.24,82.43,44.34a86.93,86.93,0,0,1,75.09-46.86c46.55-1.17,84.38,34.64,84.49,80s-37.54,83.06-84.1,84.23c-33.45.84-62.37-17.41-76.07-44.57-15,27.09-45.82,46.18-81.44,47.07-50.47,1.27-91.48-34.45-91.59-79.79S51.34,58.37,101.81,57.1Z"/></g></g><path class="cls-15" d="M93.6,187.09l.65,1A1.3,1.3,0,0,1,93.6,187.09Z"/><path class="cls-15" d="M93.9,210.9l-.3.73A1.09,1.09,0,0,1,93.9,210.9Z"/><path class="cls-15" d="M99.16,211.62l-.13-.48A1,1,0,0,1,99.16,211.62Z"/><path class="cls-15" d="M98.83,187.85l.33-.76A1.12,1.12,0,0,1,98.83,187.85Z"/><path class="cls-15" d="M99,211.14l-1.33-5-.31-6.77.21-6.43.41-3.21.81-1.85h0l.33-.76c0-.89-1.25-1.61-2.78-1.61s-2.78.72-2.78,1.61l.65,1,1,1.58L96,193l.42,6.31-.52,6.77-2,4.77-.3.73c0,.89,1.24,1.61,2.78,1.61s2.78-.72,2.78-1.61Z"/><path class="cls-15" d="M162.21,182.22l.32.71A1.09,1.09,0,0,1,162.21,182.22Z"/><path class="cls-15" d="M165.9,178.65l-4.57-2.47-5.15-4.41-4.55-4.55-2.06-2.5-.79-1.86h0l-.33-.76c-.65-.61-2-.19-3.08.93s-1.38,2.52-.73,3.13l1.2.24,1.83.36,2.92,1.76,4.89,4,4.58,5,2.14,4.69.32.71c.65.61,2,.2,3.08-.93s1.38-2.52.73-3.13Z"/><path class="cls-15" d="M144.64,166.15l1.2.24A1.3,1.3,0,0,1,144.64,166.15Z"/><path class="cls-15" d="M166.34,178.88l-.44-.24A1,1,0,0,1,166.34,178.88Z"/><path class="cls-15" d="M148.78,162.86l-.33-.76A1.12,1.12,0,0,1,148.78,162.86Z"/><path class="cls-15" d="M211.73,107.48,207,105.22l-5.35-4.17-4.75-4.33-2.17-2.4-.88-1.82h0l-.36-.75c-.67-.58-2-.1-3,1.07s-1.26,2.58-.58,3.16l1.21.18,1.84.28,3,1.62,5.07,3.78,4.81,4.8,2.36,4.59.36.7c.67.58,2,.1,3-1.07s1.26-2.58.58-3.16Z"/><path class="cls-15" d="M208.2,111.22l.36.7A1.09,1.09,0,0,1,208.2,111.22Z"/><path class="cls-15" d="M189.91,96l1.21.18A1.3,1.3,0,0,1,189.91,96Z"/><path class="cls-15" d="M212.17,107.69l-.45-.22A1,1,0,0,1,212.17,107.69Z"/><path class="cls-15" d="M193.89,92.5l-.36-.75A1.12,1.12,0,0,1,193.89,92.5Z"/><path class="cls-15" d="M260.14,61.34l.31-.77A1.12,1.12,0,0,1,260.14,61.34Z"/><path class="cls-15" d="M261.1,85.09l-.14-.48A1,1,0,0,1,261.1,85.09Z"/><path class="cls-15" d="M255.82,84.5l-.28.73A1.09,1.09,0,0,1,255.82,84.5Z"/><path class="cls-15" d="M254.9,60.71l.68,1A1.3,1.3,0,0,1,254.9,60.71Z"/><path class="cls-15" d="M261,84.61l-1.46-5L259,72.87l0-6.43.33-3.22.76-1.87h0l.31-.77c0-.89-1.29-1.57-2.82-1.53s-2.76.79-2.74,1.68l.68,1,1,1.55.8,3.31.59,6.3-.35,6.79-1.83,4.82-.28.73c0,.89,1.28,1.58,2.82,1.53s2.76-.79,2.74-1.68Z"/><path class="cls-15" d="M48.24,163.25l-.3,1.19A1.3,1.3,0,0,1,48.24,163.25Z"/><path class="cls-15" d="M31.24,179.91l-.73.29A1.09,1.09,0,0,1,31.24,179.91Z"/><path class="cls-15" d="M34.61,183.8l2.71-4.43L42,174.46l4.79-4.29,2.61-1.92,1.9-.69h0l.78-.29c.64-.61.3-2-.76-3.12s-2.44-1.51-3.08-.9l-.3,1.19-.46,1.81-1.91,2.82-4.27,4.67L36,178l-4.8,1.88-.73.29c-.64.61-.31,2,.76,3.12s2.44,1.51,3.08.9Z"/><path class="cls-15" d="M51.3,167.56l.78-.29A1.12,1.12,0,0,1,51.3,167.56Z"/><path class="cls-15" d="M34.35,184.22l.26-.42A1,1,0,0,1,34.35,184.22Z"/><path class="cls-15" d="M19.15,117.66l.48-.14A1,1,0,0,1,19.15,117.66Z"/><path class="cls-15" d="M19.63,117.53l5-1.43,6.77-.46,6.43.07L41,116l1.87.77h0l.77.32c.89,0,1.58-1.28,1.55-2.81s-.78-2.76-1.67-2.74l-1,.67-1.56,1-3.32.79-6.3.56-6.78-.38-4.82-1.85-.73-.28c-.89,0-1.58,1.27-1.55,2.81s.78,2.76,1.67,2.74Z"/><path class="cls-15" d="M43.56,111.58l-1,.67A1.3,1.3,0,0,1,43.56,111.58Z"/><path class="cls-15" d="M19.76,112.39l-.73-.28A1.09,1.09,0,0,1,19.76,112.39Z"/><path class="cls-15" d="M42.91,116.82l.77.32A1.12,1.12,0,0,1,42.91,116.82Z"/><path class="cls-15" d="M331.84,113.83l-.82.9A1.3,1.3,0,0,1,331.84,113.83Z"/><path class="cls-15" d="M309,120.51l-.78-.09A1.09,1.09,0,0,1,309,120.51Z"/><path class="cls-15" d="M310.13,125.53l4.48-2.63,6.44-2.12,6.25-1.53,3.2-.47,2,.28h0l.82.11c.85-.24,1.21-1.63.8-3.11s-1.44-2.48-2.3-2.25l-.82.9-1.26,1.38-3,1.58-6,2.1-6.67,1.31-5.12-.6-.78-.09c-.85.24-1.22,1.63-.8,3.11s1.44,2.48,2.3,2.25Z"/><path class="cls-15" d="M309.7,125.78l.43-.25A1,1,0,0,1,309.7,125.78Z"/><path class="cls-15" d="M332.51,119.07l.82.11A1.12,1.12,0,0,1,332.51,119.07Z"/><path class="cls-15" d="M278.43,181.93l2.75,4.41,2.29,6.38,1.7,6.2.55,3.19-.23,2h0l-.09.83c.26.85,1.67,1.17,3.13.72s2.44-1.51,2.18-2.36l-.93-.8-1.41-1.22-1.67-3-2.27-5.9-1.5-6.63.46-5.14.07-.78c-.26-.85-1.66-1.17-3.13-.72s-2.44,1.51-2.18,2.36Z"/><path class="cls-15" d="M290.71,203.31l-.93-.8A1.3,1.3,0,0,1,290.71,203.31Z"/><path class="cls-15" d="M283.41,180.65l.07-.78A1.09,1.09,0,0,1,283.41,180.65Z"/><path class="cls-15" d="M285.49,204.12l-.09.83A1.12,1.12,0,0,1,285.49,204.12Z"/><path class="cls-15" d="M278.17,181.5l.26.42A1,1,0,0,1,278.17,181.5Z"/><path class="cls-15" d="M189.27,173.57l-.81.18A1.12,1.12,0,0,1,189.27,173.57Z"/><path class="cls-15" d="M210.83,164.06l.76-.18A1.09,1.09,0,0,1,210.83,164.06Z"/><path class="cls-15" d="M208,159.76l-3.29,4L199.43,168l-5.33,3.6-2.84,1.55-2,.43h0l-.81.18c-.72.52-.57,2,.33,3.2s2.21,1.83,2.93,1.31l.46-1.13.7-1.73,2.28-2.53,4.86-4,5.8-3.55,5-1.21.76-.18c.72-.52.58-1.95-.33-3.2s-2.21-1.83-2.93-1.31Z"/><path class="cls-15" d="M208.34,159.37l-.31.38A1,1,0,0,1,208.34,159.37Z"/><path class="cls-15" d="M191.72,178.25l.46-1.13A1.3,1.3,0,0,1,191.72,178.25Z"/><path class="cls-15" d="M135.74,96.35l.43-1.15A1.3,1.3,0,0,1,135.74,96.35Z"/><path class="cls-15" d="M151.83,77l-.3.39A1,1,0,0,1,151.83,77Z"/><path class="cls-15" d="M151.53,77.41l-3.18,4.11-5.19,4.37-5.23,3.75-2.8,1.63-2,.48h0l-.81.2c-.7.54-.52,2,.41,3.18s2.26,1.77,3,1.23l.43-1.15.65-1.75L139,90.86l4.75-4.17,5.7-3.7,5-1.35.76-.2c.7-.54.52-2-.41-3.18s-2.26-1.77-3-1.23Z"/><path class="cls-15" d="M154.46,81.64l.76-.2A1.09,1.09,0,0,1,154.46,81.64Z"/><path class="cls-15" d="M133.16,91.73l-.81.2A1.12,1.12,0,0,1,133.16,91.73Z"/><path class="cls-15" d="M87.73,209.58l-.7-4.49.34-5.92.75-5.57.65-2.76.87-1.54h0l.36-.63c.08-.77-.94-1.51-2.27-1.65s-2.48.38-2.56,1.15l.47,1,.72,1.46.33,3-.2,5.53-1.06,5.84-2.13,4-.32.6c-.08.77.94,1.51,2.27,1.65s2.48-.38,2.56-1.15Z"/><path class="cls-15" d="M83.28,208.9l-.32.6A1,1,0,0,1,83.28,208.9Z"/><path class="cls-15" d="M85.16,188.17l.47,1A1.14,1.14,0,0,1,85.16,188.17Z"/><path class="cls-15" d="M87.8,210l-.07-.43A.91.91,0,0,1,87.8,210Z"/><path class="cls-15" d="M89.64,189.3l.36-.63A1,1,0,0,1,89.64,189.3Z"/><path class="cls-15" d="M109.77,210.12l-1.58-4.26-.84-5.87-.36-5.61.09-2.83.55-1.68h0l.22-.69c-.07-.77-1.22-1.29-2.56-1.16s-2.36.86-2.28,1.63l.65.85,1,1.29.91,2.84.9,5.46.12,5.94-1.3,4.32-.2.66c.07.77,1.22,1.29,2.56,1.16s2.36-.86,2.28-1.63Z"/><path class="cls-15" d="M105.28,210.34l-.2.66A1,1,0,0,1,105.28,210.34Z"/><path class="cls-15" d="M103,189.65l.65.85A1.14,1.14,0,0,1,103,189.65Z"/><path class="cls-15" d="M109.92,210.53l-.15-.41A.91.91,0,0,1,109.92,210.53Z"/><path class="cls-15" d="M107.62,189.87l.22-.69A1,1,0,0,1,107.62,189.87Z"/><path class="cls-15" d="M151.22,190.2l.2.65A1,1,0,0,1,151.22,190.2Z"/><path class="cls-15" d="M137.74,174.34l1,.33A1.14,1.14,0,0,1,137.74,174.34Z"/><path class="cls-15" d="M155.17,187.76l-.35-.25A.91.91,0,0,1,155.17,187.76Z"/><path class="cls-15" d="M154.82,187.5l-3.69-2.64-4-4.39L143.69,176l-1.52-2.39-.49-1.7h0l-.2-.7c-.49-.6-1.74-.39-2.77.47s-1.47,2-1,2.63l1,.33,1.55.51,2.34,1.84,3.81,4,3.43,4.85,1.35,4.31.2.65c.49.6,1.73.39,2.77-.47s1.47-2,1-2.63Z"/><path class="cls-15" d="M141.69,171.94l-.2-.7A1,1,0,0,1,141.69,171.94Z"/><path class="cls-15" d="M166.19,172.16l.29.62A1,1,0,0,1,166.19,172.16Z"/><path class="cls-15" d="M154.4,155.26l-.29-.67A1,1,0,0,1,154.4,155.26Z"/><path class="cls-15" d="M169.8,169.22l-.38-.21A.91.91,0,0,1,169.8,169.22Z"/><path class="cls-15" d="M150.79,158.15l1.05.2A1.14,1.14,0,0,1,150.79,158.15Z"/><path class="cls-15" d="M169.41,169l-4-2.15L160.89,163l-4-4-1.81-2.18-.7-1.62h0l-.29-.67c-.57-.53-1.77-.16-2.69.82s-1.2,2.21-.63,2.74l1.05.2,1.6.31,2.56,1.53,4.29,3.49,4,4.37,1.89,4.1.29.62c.57.53,1.77.17,2.69-.82s1.2-2.21.63-2.74Z"/><path class="cls-15" d="M201.28,117.56l.29.62A1,1,0,0,1,201.28,117.56Z"/><path class="cls-15" d="M185.87,103.55l1.05.2A1.14,1.14,0,0,1,185.87,103.55Z"/><path class="cls-15" d="M204.5,114.42l-4-2.15L196,108.44l-4-4-1.81-2.18-.7-1.62h0l-.29-.67c-.57-.53-1.77-.16-2.69.82s-1.2,2.21-.63,2.74l1.05.2,1.6.31,2.56,1.53,4.29,3.49,4,4.37,1.89,4.1.29.62c.57.53,1.77.17,2.69-.82s1.2-2.21.63-2.74Z"/><path class="cls-15" d="M204.88,114.63l-.38-.21A.91.91,0,0,1,204.88,114.63Z"/><path class="cls-15" d="M189.48,100.66l-.29-.67A1,1,0,0,1,189.48,100.66Z"/><path class="cls-15" d="M216.45,100.46l-.38-.21A.91.91,0,0,1,216.45,100.46Z"/><path class="cls-15" d="M197.45,89.39l1.05.2A1.14,1.14,0,0,1,197.45,89.39Z"/><path class="cls-15" d="M212.85,103.4l.29.62A1,1,0,0,1,212.85,103.4Z"/><path class="cls-15" d="M201.06,86.5l-.29-.67A1,1,0,0,1,201.06,86.5Z"/><path class="cls-15" d="M216.07,100.26l-4-2.15-4.52-3.84-4-4-1.81-2.18-.7-1.62h0l-.29-.67c-.57-.53-1.77-.16-2.69.82s-1.2,2.21-.63,2.74l1.05.2,1.6.31,2.56,1.53,4.29,3.49,4,4.37,1.89,4.1.29.62c.57.53,1.77.17,2.69-.82s1.2-2.21.63-2.74Z"/><path class="cls-15" d="M242.06,62.81l.69.82A1.14,1.14,0,0,1,242.06,62.81Z"/><path class="cls-15" d="M245.27,83.38l-.17.66A1,1,0,0,1,245.27,83.38Z"/><path class="cls-15" d="M249.75,83,248,78.78,246.87,73l-.62-5.59,0-2.83.47-1.7h0l.19-.7c-.11-.77-1.28-1.24-2.61-1s-2.32,1-2.21,1.74l.69.82,1.05,1.25,1,2.79L246,73.08l.39,5.93-1.1,4.38-.17.66c.11.77,1.27,1.24,2.61,1s2.32-1,2.21-1.74Z"/><path class="cls-15" d="M249.91,83.36l-.17-.4A.91.91,0,0,1,249.91,83.36Z"/><path class="cls-15" d="M246.68,62.83l.19-.7A1,1,0,0,1,246.68,62.83Z"/><path class="cls-15" d="M266,83.1l-.34.59A1,1,0,0,1,266,83.1Z"/><path class="cls-15" d="M273,63.72l.38-.62A1,1,0,0,1,273,63.72Z"/><path class="cls-15" d="M268.6,62.44l.44,1A1.14,1.14,0,0,1,268.6,62.44Z"/><path class="cls-15" d="M270.45,83.92l-.55-4.51.53-5.91.94-5.54.74-2.73.92-1.51h0l.38-.62c.11-.77-.89-1.54-2.22-1.72s-2.49.3-2.6,1.06l.44,1,.67,1.49.23,3-.38,5.52-1.26,5.81L266,83.1l-.34.59c-.11.77.88,1.54,2.22,1.72s2.49-.3,2.6-1.06Z"/><path class="cls-15" d="M270.5,84.35l-.05-.43A.91.91,0,0,1,270.5,84.35Z"/><path class="cls-15" d="M321.94,99l-.41,1A1.14,1.14,0,0,1,321.94,99Z"/><path class="cls-15" d="M305.14,111.26l-.67.16A1,1,0,0,1,305.14,111.26Z"/><path class="cls-15" d="M307.56,115l2.9-3.49,4.67-3.66,4.68-3.11,2.5-1.34,1.73-.36h0l.71-.15c.63-.45.51-1.7-.26-2.8s-1.92-1.61-2.55-1.17l-.41,1-.63,1.51-2,2.2-4.28,3.5-5.09,3.06-4.39,1-.67.16c-.63.45-.52,1.7.26,2.8s1.92,1.61,2.55,1.17Z"/><path class="cls-15" d="M324.05,103.09l.71-.15A1,1,0,0,1,324.05,103.09Z"/><path class="cls-15" d="M307.29,115.37l.28-.33A.91.91,0,0,1,307.29,115.37Z"/><path class="cls-15" d="M310.65,136.22l4.33-1.36,5.9-.54,5.62-.07,2.82.23,1.65.63h0l.68.26c.77,0,1.36-1.15,1.29-2.49s-.74-2.4-1.51-2.36l-.88.61-1.34.93-2.88.76-5.49.62-5.94-.19-4.25-1.52-.65-.23c-.77,0-1.36,1.15-1.29,2.49s.74,2.4,1.51,2.36Z"/><path class="cls-15" d="M310.67,131.73l-.65-.23A1,1,0,0,1,310.67,131.73Z"/><path class="cls-15" d="M331.45,130.52l-.88.61A1.14,1.14,0,0,1,331.45,130.52Z"/><path class="cls-15" d="M331,135.12l.68.26A1,1,0,0,1,331,135.12Z"/><path class="cls-15" d="M310.24,136.35l.41-.13A.91.91,0,0,1,310.24,136.35Z"/><path class="cls-15" d="M293.74,175.92l-.23-.65A1,1,0,0,1,293.74,175.92Z"/><path class="cls-15" d="M307.76,191.31l-1-.3A1.14,1.14,0,0,1,307.76,191.31Z"/><path class="cls-15" d="M290.24,178.75l3.78,2.51,4.14,4.25,3.6,4.32,1.6,2.34.55,1.68h0l.23.69c.51.58,1.75.33,2.75-.56s1.4-2.09.88-2.67l-1-.3-1.56-.46-2.4-1.76-3.94-3.88-3.59-4.73-1.49-4.26-.23-.65c-.51-.58-1.74-.33-2.75.56s-1.4,2.09-.88,2.67Z"/><path class="cls-15" d="M303.9,193.85l.23.69A1,1,0,0,1,303.9,193.85Z"/><path class="cls-15" d="M289.88,178.5l.36.24A.91.91,0,0,1,289.88,178.5Z"/><path class="cls-15" d="M268,206l-.26.68A1,1,0,0,1,268,206Z"/><path class="cls-15" d="M267,185.69l1.33,4.34.5,5.91,0,5.62-.25,2.82L268,206h0l-.26.68c0,.77,1.14,1.36,2.48,1.31s2.4-.73,2.37-1.5l-.6-.88-.92-1.35-.74-2.89-.59-5.5L270,190l1.55-4.24.24-.64c0-.77-1.14-1.36-2.48-1.31s-2.4.73-2.37,1.5Z"/><path class="cls-15" d="M272.58,206.52l-.6-.88A1.14,1.14,0,0,1,272.58,206.52Z"/><path class="cls-15" d="M271.51,185.73l.24-.64A1,1,0,0,1,271.51,185.73Z"/><path class="cls-15" d="M266.89,185.28l.13.41A.91.91,0,0,1,266.89,185.28Z"/><path class="cls-15" d="M201,155.94l.67-.16A1,1,0,0,1,201,155.94Z"/><path class="cls-15" d="M184.24,168.33l.4-1A1.14,1.14,0,0,1,184.24,168.33Z"/><path class="cls-15" d="M198.51,152.17l-2.88,3.51L191,159.37l-4.66,3.14-2.49,1.35-1.73.37h0l-.71.16c-.63.45-.5,1.71.28,2.79s1.93,1.6,2.56,1.15l.4-1,.62-1.51,2-2.21,4.26-3.53,5.07-3.09,4.39-1.05.67-.16c.63-.45.51-1.7-.28-2.79s-1.93-1.6-2.56-1.15Z"/><path class="cls-15" d="M198.79,151.84l-.28.33A.91.91,0,0,1,198.79,151.84Z"/><path class="cls-15" d="M182.1,164.23l-.71.16A1,1,0,0,1,182.1,164.23Z"/><path class="cls-15" d="M219.16,173.12l.65-.2A1,1,0,0,1,219.16,173.12Z"/><path class="cls-15" d="M203.29,186.6l.34-1A1.14,1.14,0,0,1,203.29,186.6Z"/><path class="cls-15" d="M200.89,182.65l-.7.2A1,1,0,0,1,200.89,182.65Z"/><path class="cls-15" d="M216.46,169.52l-2.64,3.69-4.39,4L205,180.65l-2.39,1.52-1.7.49h0l-.7.2c-.6.49-.39,1.74.47,2.77s2,1.47,2.63,1l.34-1,.51-1.55,1.84-2.34,4-3.81,4.85-3.43,4.31-1.35.65-.2c.6-.49.39-1.73-.47-2.77s-2-1.47-2.63-1Z"/><path class="cls-15" d="M216.71,169.17l-.25.35A.91.91,0,0,1,216.71,169.17Z"/><path class="cls-15" d="M57,175.09l.66-.3A1,1,0,0,1,57,175.09Z"/><path class="cls-15" d="M43.31,190.75l.2-.39A.91.91,0,0,1,43.31,190.75Z"/><path class="cls-15" d="M54,171.54l-.18,1.05A1.14,1.14,0,0,1,54,171.54Z"/><path class="cls-15" d="M43.5,190.37l2.07-4,3.75-4.59,3.89-4.06,2.14-1.85,1.61-.73h0l.66-.3c.52-.58.13-1.77-.87-2.67S54.53,171,54,171.54l-.18,1.05-.28,1.61-1.48,2.59-3.41,4.36-4.3,4.1-4.06,2-.62.3c-.52.58-.13,1.77.87,2.67s2.23,1.15,2.75.58Z"/><path class="cls-15" d="M40.3,187.21l-.62.3A1,1,0,0,1,40.3,187.21Z"/><path class="cls-15" d="M28.35,174.15l.25-.35A.91.91,0,0,1,28.35,174.15Z"/><path class="cls-15" d="M25.91,170.2l-.66.2A1,1,0,0,1,25.91,170.2Z"/><path class="cls-15" d="M44.19,160.69l.7-.2A1,1,0,0,1,44.19,160.69Z"/><path class="cls-15" d="M28.61,173.8l2.64-3.69,4.39-4,4.45-3.44,2.39-1.51,1.7-.48h0l.7-.2c.6-.49.39-1.74-.46-2.77s-2-1.47-2.63-1l-.34,1-.52,1.55-1.85,2.34-4,3.8-4.86,3.42-4.31,1.34-.66.2c-.6.49-.39,1.73.46,2.77s2,1.47,2.63,1Z"/><path class="cls-15" d="M41.79,156.74l-.34,1A1.14,1.14,0,0,1,41.79,156.74Z"/><path class="cls-15" d="M16.45,121.76l-.64-.24A1,1,0,0,1,16.45,121.76Z"/><path class="cls-15" d="M37.24,120.69l-.88.6A1.14,1.14,0,0,1,37.24,120.69Z"/><path class="cls-15" d="M16.41,126.25l4.34-1.33,5.91-.5,5.62,0,2.82.25,1.64.64h0l.68.26c.77,0,1.36-1.14,1.31-2.48s-.72-2.4-1.5-2.37l-.88.6-1.35.92-2.89.74-5.5.58-5.94-.23-4.24-1.55-.64-.24c-.77,0-1.36,1.14-1.31,2.48s.72,2.4,1.5,2.37Z"/><path class="cls-15" d="M16,126.38l.41-.13A.91.91,0,0,1,16,126.38Z"/><path class="cls-15" d="M36.75,125.29l.68.26A1,1,0,0,1,36.75,125.29Z"/><path class="cls-15" d="M26.31,104.85l.43,0A.91.91,0,0,1,26.31,104.85Z"/><path class="cls-15" d="M27.7,100.42l-.58-.36A1,1,0,0,1,27.7,100.42Z"/><path class="cls-15" d="M26.74,104.82l4.52-.42,5.89.71,5.51,1.11,2.71.82,1.48,1h0l.61.4c.76.13,1.57-.84,1.79-2.17s-.22-2.5-1-2.63l-1,.41-1.51.62-3,.14-5.5-.55-5.77-1.43-3.83-2.38-.58-.36c-.76-.13-1.57.84-1.79,2.17s.22,2.5,1,2.63Z"/><path class="cls-15" d="M48.27,103.6l-1,.41A1.14,1.14,0,0,1,48.27,103.6Z"/><path class="cls-15" d="M46.86,108l.61.4A1,1,0,0,1,46.86,108Z"/><path class="cls-15" d="M70.51,68.36l.25-.64A1,1,0,0,1,70.51,68.36Z"/><path class="cls-15" d="M66.53,88.58l-.28.67A1,1,0,0,1,66.53,88.58Z"/><path class="cls-15" d="M65.9,67.8l.12.42A.91.91,0,0,1,65.9,67.8Z"/><path class="cls-15" d="M71.11,89.17l-.58-.9A1.14,1.14,0,0,1,71.11,89.17Z"/><path class="cls-15" d="M66,68.22l1.23,4.37.37,5.92-.09,5.62-.31,2.81-.68,1.63h0l-.28.67c0,.78,1.11,1.39,2.45,1.37s2.42-.67,2.41-1.45l-.58-.9-.89-1.37L69,84l-.46-5.51.36-5.93,1.64-4.2.25-.64c0-.78-1.11-1.39-2.45-1.37S65.88,67,65.9,67.8Z"/><path class="cls-15" d="M74.62,202.93l-.3.36A.66.66,0,0,1,74.62,202.93Z"/><path class="cls-15" d="M81.61,190.63l.33-.38A.67.67,0,0,1,81.61,190.63Z"/><path class="cls-15" d="M77.51,204l.15-3.12,1-3.94L80,193.31l.82-1.77.8-.91h0l.33-.38c.16-.51-.42-1.15-1.3-1.42s-1.72-.09-1.88.42l.18.71.28,1.08-.19,2-.9,3.69-1.53,3.78-2,2.38-.3.36c-.16.51.42,1.15,1.3,1.42s1.72.09,1.88-.42Z"/><path class="cls-15" d="M78.76,189.24l.18.71A.78.78,0,0,1,78.76,189.24Z"/><path class="cls-15" d="M77.5,204.3V204A.63.63,0,0,1,77.5,204.3Z"/><path class="cls-15" d="M116.41,206.55l-1.21-2.88-.75-4-.41-3.84,0-1.95.33-1.17h0l.13-.48c-.07-.53-.88-.85-1.79-.72s-1.59.66-1.52,1.19l.47.56.72.86.7,1.92.78,3.72.25,4.07-.77,3-.12.46c.07.53.87.85,1.79.72s1.59-.66,1.52-1.19Z"/><path class="cls-15" d="M111.17,192.7l.47.56A.78.78,0,0,1,111.17,192.7Z"/><path class="cls-15" d="M113.34,206.83l-.12.46A.66.66,0,0,1,113.34,206.83Z"/><path class="cls-15" d="M116.53,206.83l-.12-.27A.63.63,0,0,1,116.53,206.83Z"/><path class="cls-15" d="M114.35,192.72l.13-.48A.67.67,0,0,1,114.35,192.72Z"/><path class="cls-15" d="M145.57,192.13l-2.36-2-2.45-3.25-2.08-3.26-.88-1.73-.23-1.19h0l-.09-.49c-.3-.44-1.16-.38-1.92.14s-1.13,1.3-.83,1.74l.67.29,1,.45,1.48,1.41,2.35,3,2,3.54.65,3,.1.46c.3.44,1.16.38,1.92-.14s1.13-1.3.83-1.74Z"/><path class="cls-15" d="M137.58,180.64l-.09-.49A.67.67,0,0,1,137.58,180.64Z"/><path class="cls-15" d="M142.94,193.75l.1.46A.66.66,0,0,1,142.94,193.75Z"/><path class="cls-15" d="M145.8,192.32l-.23-.2A.63.63,0,0,1,145.8,192.32Z"/><path class="cls-15" d="M134.73,182l.67.29A.78.78,0,0,1,134.73,182Z"/><path class="cls-15" d="M216.68,92.56l-2.36-2-2.45-3.25L209.79,84l-.88-1.73-.23-1.19h0l-.09-.49c-.3-.44-1.16-.38-1.92.14s-1.13,1.3-.83,1.74l.67.29,1,.45L209,84.62l2.35,3,2,3.54.65,3,.1.46c.3.44,1.16.38,1.92-.14s1.13-1.3.83-1.74Z"/><path class="cls-15" d="M214,94.18l.1.46A.66.66,0,0,1,214,94.18Z"/><path class="cls-15" d="M205.83,82.47l.67.29A.78.78,0,0,1,205.83,82.47Z"/><path class="cls-15" d="M208.69,81.08l-.09-.49A.67.67,0,0,1,208.69,81.08Z"/><path class="cls-15" d="M216.9,92.76l-.23-.2A.63.63,0,0,1,216.9,92.76Z"/><path class="cls-15" d="M237.3,83.23l-.14.45A.66.66,0,0,1,237.3,83.23Z"/><path class="cls-15" d="M235.72,69l.45.58A.78.78,0,0,1,235.72,69Z"/><path class="cls-15" d="M240.38,83.08l-1.09-2.92-.58-4-.25-3.86.06-1.94.38-1.15h0l.15-.48c-.05-.53-.84-.89-1.76-.8s-1.62.59-1.57,1.12l.45.58.68.89.62,1.95.62,3.75.08,4.08-.89,3-.14.45c.05.53.84.89,1.76.8s1.62-.59,1.57-1.12Z"/><path class="cls-15" d="M238.89,69.17l.15-.48A.67.67,0,0,1,238.89,69.17Z"/><path class="cls-15" d="M240.48,83.36l-.1-.28A.63.63,0,0,1,240.48,83.36Z"/><path class="cls-15" d="M277.57,85l.7-3L280,78.29l1.91-3.36L283,73.33l.95-.76h0l.39-.31c.25-.47-.21-1.2-1-1.63s-1.68-.39-1.93.08l.06.73.08,1.12-.55,2L279.46,78l-2.17,3.45-2.38,2-.36.3c-.25.47.21,1.2,1,1.63s1.68.39,1.93-.08Z"/><path class="cls-15" d="M274.91,83.45l-.36.3A.66.66,0,0,1,274.91,83.45Z"/><path class="cls-15" d="M284,72.58l.39-.31A.67.67,0,0,1,284,72.58Z"/><path class="cls-15" d="M277.5,85.3l.07-.29A.63.63,0,0,1,277.5,85.3Z"/><path class="cls-15" d="M281.41,70.71l.06.73A.78.78,0,0,1,281.41,70.71Z"/><path class="cls-15" d="M305.48,105.63l.13-.27A.63.63,0,0,1,305.48,105.63Z"/><path class="cls-15" d="M305.62,105.36l1.38-2.8,2.53-3.19,2.63-2.83,1.45-1.29,1.1-.52h0l.45-.22c.35-.4.07-1.22-.62-1.83s-1.54-.77-1.89-.37l-.11.73-.18,1.11-1,1.79-2.3,3-2.91,2.86-2.77,1.39-.42.21c-.35.4-.07,1.22.62,1.83s1.54.77,1.89.37Z"/><path class="cls-15" d="M303.39,103.22l-.42.21A.66.66,0,0,1,303.39,103.22Z"/><path class="cls-15" d="M312.64,92.32l-.11.73A.78.78,0,0,1,312.64,92.32Z"/><path class="cls-15" d="M314.71,94.73l.45-.22A.67.67,0,0,1,314.71,94.73Z"/><path class="cls-15" d="M311.19,141.47l-.42-.22A.66.66,0,0,1,311.19,141.47Z"/><path class="cls-15" d="M325.45,142.58l-.66.33A.78.78,0,0,1,325.45,142.58Z"/><path class="cls-15" d="M310.76,144.53l3.08-.52,4.07.18,3.83.47,1.9.42,1.06.58h0l.44.24c.53,0,1-.66,1.11-1.58s-.28-1.7-.81-1.75l-.66.33-1,.51-2,.25-3.8-.09-4-.68-2.75-1.43-.42-.22c-.53,0-1,.66-1.11,1.58s.28,1.7.81,1.75Z"/><path class="cls-15" d="M324.71,145.67l.44.24A.67.67,0,0,1,324.71,145.67Z"/><path class="cls-15" d="M310.47,144.58l.29,0A.63.63,0,0,1,310.47,144.58Z"/><path class="cls-15" d="M314.68,176.62h-.73A.78.78,0,0,1,314.68,176.62Z"/><path class="cls-15" d="M302.4,169.29l-.28-.38A.66.66,0,0,1,302.4,169.29Z"/><path class="cls-15" d="M300.66,171.84l3,.9,3.57,2,3.23,2.13,1.52,1.22.69,1h0l.29.41c.45.28,1.22-.13,1.7-.92s.5-1.65.05-1.93h-1.85L310.9,176l-3.36-1.77-3.3-2.4-1.83-2.5-.28-.38c-.45-.28-1.21.13-1.7.92s-.5,1.65-.05,1.93Z"/><path class="cls-15" d="M300.38,171.75l.29.09A.63.63,0,0,1,300.38,171.75Z"/><path class="cls-15" d="M312.65,179.05l.29.41A.67.67,0,0,1,312.65,179.05Z"/><path class="cls-15" d="M260.19,203.91l-.43-.59A.78.78,0,0,1,260.19,203.91Z"/><path class="cls-15" d="M259,189.65l.15-.45A.66.66,0,0,1,259,189.65Z"/><path class="cls-15" d="M256,189.71l1,3,.46,4,.14,3.86-.12,1.94-.41,1.14h0l-.17.47c0,.53.81.91,1.73.85s1.64-.55,1.6-1.08l-.43-.59-.66-.91-.56-2-.51-3.76,0-4.08,1-2.94.15-.45c0-.53-.81-.91-1.73-.85s-1.64.55-1.6,1.08Z"/><path class="cls-15" d="M255.86,189.43l.1.28A.63.63,0,0,1,255.86,189.43Z"/><path class="cls-15" d="M257,203.66l-.17.47A.67.67,0,0,1,257,203.66Z"/><path class="cls-15" d="M191.4,148.64l-2.12,2.29-3.34,2.33-3.33,2-1.76.82-1.2.18h0l-.49.08c-.45.28-.42,1.15.08,1.93s1.26,1.18,1.71.9l.32-.66.49-1L183.2,156l3.07-2.24,3.61-1.91,3.05-.54.46-.08c.45-.28.42-1.15-.08-1.93s-1.26-1.18-1.71-.9Z"/><path class="cls-15" d="M192.92,151.32l.46-.08A.66.66,0,0,1,192.92,151.32Z"/><path class="cls-15" d="M180.93,159.12l.32-.66A.78.78,0,0,1,180.93,159.12Z"/><path class="cls-15" d="M179.64,156.22l-.49.08A.67.67,0,0,1,179.64,156.22Z"/><path class="cls-15" d="M191.6,148.42l-.2.22A.63.63,0,0,1,191.6,148.42Z"/><path class="cls-15" d="M177.71,126.75,175.59,129l-3.34,2.33-3.33,2-1.76.82-1.2.18h0l-.49.08c-.45.28-.42,1.15.08,1.93s1.26,1.18,1.71.9l.32-.66.49-1,1.46-1.43,3.07-2.24,3.61-1.91,3.05-.54.46-.08c.45-.28.42-1.15-.08-1.93s-1.26-1.18-1.71-.9Z"/><path class="cls-15" d="M167.24,137.23l.32-.66A.78.78,0,0,1,167.24,137.23Z"/><path class="cls-15" d="M179.23,129.44l.46-.08A.66.66,0,0,1,179.23,129.44Z"/><path class="cls-15" d="M177.91,126.53l-.2.22A.63.63,0,0,1,177.91,126.53Z"/><path class="cls-15" d="M166,134.33l-.49.08A.67.67,0,0,1,166,134.33Z"/><path class="cls-15" d="M217.55,191.91l.06-.73A.78.78,0,0,1,217.55,191.91Z"/><path class="cls-15" d="M223.74,178.12l-.11.28A.63.63,0,0,1,223.74,178.12Z"/><path class="cls-15" d="M226,180.37l.41-.24A.66.66,0,0,1,226,180.37Z"/><path class="cls-15" d="M215.32,189.65l-.43.25A.67.67,0,0,1,215.32,189.65Z"/><path class="cls-15" d="M223.63,178.4l-1.17,2.89-2.3,3.36-2.42,3-1.36,1.39-1.06.6h0l-.43.25c-.32.43,0,1.22.75,1.78s1.6.66,1.92.23l.06-.73.1-1.12.86-1.86,2.07-3.18,2.7-3.06,2.66-1.59.41-.24c.32-.43,0-1.22-.75-1.78s-1.6-.66-1.92-.23Z"/><path class="cls-15" d="M49.29,189.07l-.42.22A.66.66,0,0,1,49.29,189.07Z"/><path class="cls-15" d="M51.45,191.42l.13-.27A.63.63,0,0,1,51.45,191.42Z"/><path class="cls-15" d="M58.27,177.94l-.1.73A.78.78,0,0,1,58.27,177.94Z"/><path class="cls-15" d="M60.4,180.3l.45-.23A.67.67,0,0,1,60.4,180.3Z"/><path class="cls-15" d="M51.57,191.15l1.31-2.83,2.45-3.25,2.56-2.9,1.42-1.33,1.08-.55h0l.45-.23c.34-.41,0-1.22-.67-1.81s-1.56-.73-1.9-.32l-.1.73L58,179.78l-.94,1.82-2.22,3.08L52,187.61l-2.73,1.46-.42.22c-.34.41,0,1.22.67,1.81s1.56.73,1.9.32Z"/><path class="cls-15" d="M33.81,152.11l-.29.68A.78.78,0,0,1,33.81,152.11Z"/><path class="cls-15" d="M23.84,163.06l2-2.38,3.23-2.49,3.24-2.11,1.72-.9,1.19-.24h0l.49-.1c.44-.31.36-1.17-.17-1.92s-1.31-1.12-1.75-.81l-.29.68-.44,1-1.39,1.5-3,2.38-3.52,2.07-3,.68-.46.1c-.44.31-.36,1.16.17,1.92s1.31,1.12,1.75.81Z"/><path class="cls-15" d="M22.19,160.45l-.46.1A.66.66,0,0,1,22.19,160.45Z"/><path class="cls-15" d="M23.65,163.29l.19-.23A.63.63,0,0,1,23.65,163.29Z"/><path class="cls-15" d="M35.23,154.95l.49-.1A.67.67,0,0,1,35.23,154.95Z"/><path class="cls-15" d="M17.31,130.74l-.45-.15A.66.66,0,0,1,17.31,130.74Z"/><path class="cls-15" d="M17.34,133.82l3-1,4.05-.42,3.86-.1,1.94.13,1.14.42h0l.47.17c.53,0,.92-.8.87-1.72s-.53-1.64-1.06-1.61l-.6.43-.91.65-2,.55-3.77.48-4.08-.08-2.93-1-.45-.15c-.53,0-.92.8-.87,1.72s.53,1.64,1.06,1.61Z"/><path class="cls-15" d="M31.58,129.72l-.6.43A.78.78,0,0,1,31.58,129.72Z"/><path class="cls-15" d="M31.3,132.89l.47.17A.67.67,0,0,1,31.3,132.89Z"/><path class="cls-15" d="M17.06,133.92l.28-.09A.63.63,0,0,1,17.06,133.92Z"/><path class="cls-15" d="M47.63,98l-.71.18A.78.78,0,0,1,47.63,98Z"/><path class="cls-15" d="M34,93.72l-.36-.31A.66.66,0,0,1,34,93.72Z"/><path class="cls-15" d="M32.58,96.59l.3,0A.63.63,0,0,1,32.58,96.59Z"/><path class="cls-15" d="M32.88,96.61l3.11.18,3.93,1.08,3.63,1.32,1.76.83.91.81h0l.37.33c.51.17,1.15-.41,1.44-1.29s.11-1.72-.4-1.89l-.71.18-1.09.27-2-.21-3.68-.93-3.77-1.56-2.36-2-.36-.31c-.51-.17-1.15.41-1.44,1.29s-.11,1.72.4,1.89Z"/><path class="cls-15" d="M46.22,100.83l.37.33A.67.67,0,0,1,46.22,100.83Z"/><path class="cls-15" d="M63,74.71l.16-.44A.66.66,0,0,1,63,74.71Z"/><path class="cls-15" d="M59.88,74.72l.95,3,.39,4.05.07,3.86-.15,1.94-.43,1.13h0l-.18.47c0,.53.8.93,1.72.88s1.65-.52,1.62-1l-.42-.6-.64-.92-.53-2-.44-3.77.11-4.08,1-2.92.16-.44c0-.53-.79-.93-1.72-.88s-1.65.52-1.62,1Z"/><path class="cls-15" d="M63.86,89l-.42-.6A.78.78,0,0,1,63.86,89Z"/><path class="cls-15" d="M60.7,88.68l-.18.47A.67.67,0,0,1,60.7,88.68Z"/><path class="cls-15" d="M59.79,74.43l.09.28A.63.63,0,0,1,59.79,74.43Z"/><path class="cls-15" d="M156.13,92.19l.46-.1A.66.66,0,0,1,156.13,92.19Z"/><path class="cls-15" d="M144.55,100.58l.28-.68A.78.78,0,0,1,144.55,100.58Z"/><path class="cls-15" d="M154.66,89.35l-.19.23A.63.63,0,0,1,154.66,89.35Z"/><path class="cls-15" d="M154.47,89.58l-2,2.39-3.22,2.5L146,96.6l-1.72.91-1.19.24h0l-.49.1c-.43.31-.36,1.17.17,1.92s1.32,1.11,1.75.81l.28-.68.43-1,1.39-1.51L149.6,95l3.5-2.09,3-.69.46-.1c.43-.31.36-1.17-.17-1.92s-1.32-1.11-1.75-.81Z"/><path class="cls-15" d="M143.12,97.75l-.49.1A.67.67,0,0,1,143.12,97.75Z"/><path class="cls-15" d="M143.79,77.15l.45-.15A.66.66,0,0,1,143.79,77.15Z"/><path class="cls-15" d="M141.85,74.74l-1.73,2.6-2.92,2.84-3,2.47-1.61,1.09-1.15.37h0l-.48.16c-.4.35-.23,1.2.38,1.89s1.43,1,1.83.61l.21-.71.32-1.07,1.21-1.65,2.67-2.7,3.25-2.46,2.93-1,.45-.15c.4-.35.23-1.2-.38-1.89s-1.43-1-1.83-.61Z"/><path class="cls-15" d="M133.2,86.77l.21-.71A.78.78,0,0,1,133.2,86.77Z"/><path class="cls-15" d="M142,74.5l-.17.25A.63.63,0,0,1,142,74.5Z"/><path class="cls-15" d="M131.46,84.11l-.48.16A.67.67,0,0,1,131.46,84.11Z"/><path class="cls-15" d="M68.51,198.57l-.22.22A.43.43,0,0,1,68.51,198.57Z"/><path class="cls-15" d="M72,189.86l.08.47A.51.51,0,0,1,72,189.86Z"/><path class="cls-15" d="M70.35,199.43l.27-2,.9-2.51,1-2.31.63-1.11.57-.55h0l.24-.23c.13-.32-.21-.77-.77-1s-1.12-.15-1.25.17l.08.47.12.72-.24,1.32-.79,2.36-1.21,2.39-1.43,1.45-.22.22c-.13.32.21.77.77,1s1.12.15,1.25-.17Z"/><path class="cls-15" d="M70.32,199.62l0-.19A.41.41,0,0,1,70.32,199.62Z"/><path class="cls-15" d="M73.76,190.92l.24-.23A.44.44,0,0,1,73.76,190.92Z"/><path class="cls-15" d="M124.69,203.11l-1.14-1.7-1-2.48-.75-2.42-.26-1.25.06-.79h0l0-.33c-.11-.33-.67-.44-1.24-.24s-.94.63-.83,1l.38.3.57.46.7,1.15,1,2.29.68,2.59-.11,2,0,.31c.11.33.67.44,1.24.24s.94-.63.83-1Z"/><path class="cls-15" d="M124.8,203.28l-.11-.16A.41.41,0,0,1,124.8,203.28Z"/><path class="cls-15" d="M122.75,203.69l0,.31A.43.43,0,0,1,122.75,203.69Z"/><path class="cls-15" d="M119.56,194.87l.38.3A.51.51,0,0,1,119.56,194.87Z"/><path class="cls-15" d="M121.6,194.48l0-.33A.44.44,0,0,1,121.6,194.48Z"/><path class="cls-15" d="M137.49,196.36l-1.39-1.5-1.36-2.29-1.12-2.27-.45-1.19-.06-.79h0l0-.33c-.16-.31-.73-.33-1.26,0s-.83.77-.67,1.07l.42.24.64.37.87,1,1.32,2.11,1.07,2.45.21,2,0,.31c.16.31.73.33,1.26,0s.83-.77.67-1.07Z"/><path class="cls-15" d="M133.1,188.31l0-.33A.44.44,0,0,1,133.1,188.31Z"/><path class="cls-15" d="M135.66,197.23l0,.31A.43.43,0,0,1,135.66,197.23Z"/><path class="cls-15" d="M131.14,189l.42.24A.51.51,0,0,1,131.14,189Z"/><path class="cls-15" d="M137.63,196.51l-.13-.14A.41.41,0,0,1,137.63,196.51Z"/><path class="cls-15" d="M218.9,88.6l0,.31A.43.43,0,0,1,218.9,88.6Z"/><path class="cls-15" d="M214.38,80.38l.42.24A.51.51,0,0,1,214.38,80.38Z"/><path class="cls-15" d="M220.73,87.73l-1.39-1.5L218,83.94l-1.12-2.27-.45-1.19-.06-.79h0l0-.33c-.16-.31-.73-.33-1.26,0s-.83.77-.67,1.07l.42.24.64.37.87,1,1.32,2.11,1.07,2.45.21,2,0,.31c.16.31.73.33,1.26,0s.83-.77.67-1.07Z"/><path class="cls-15" d="M216.34,79.68l0-.33A.44.44,0,0,1,216.34,79.68Z"/><path class="cls-15" d="M220.86,87.87l-.13-.14A.41.41,0,0,1,220.86,87.87Z"/><path class="cls-15" d="M230.72,82.65l-.07.3A.43.43,0,0,1,230.72,82.65Z"/><path class="cls-15" d="M231.17,73.39l.08-.32A.44.44,0,0,1,231.17,73.39Z"/><path class="cls-15" d="M232.81,82.6l-.08-.18A.41.41,0,0,1,232.81,82.6Z"/><path class="cls-15" d="M232.73,82.42l-.83-1.87-.55-2.61L231,75.43l0-1.27.2-.77h0l.08-.32c-.06-.34-.59-.55-1.18-.45s-1,.46-1,.8l.32.36.48.55.49,1.25L231,78l.23,2.67-.46,2-.07.3c.06.34.58.55,1.18.45s1-.46,1-.8Z"/><path class="cls-15" d="M229.09,73.42l.32.36A.51.51,0,0,1,229.09,73.42Z"/><path class="cls-15" d="M286.24,87.87l.06-.19A.41.41,0,0,1,286.24,87.87Z"/><path class="cls-15" d="M291.27,80l.27-.18A.44.44,0,0,1,291.27,80Z"/><path class="cls-15" d="M284.66,86.5l-.26.17A.43.43,0,0,1,284.66,86.5Z"/><path class="cls-15" d="M286.3,87.69l.65-1.94,1.36-2.3,1.46-2.07.83-1,.67-.43h0l.27-.18c.19-.29-.06-.8-.57-1.13s-1.07-.36-1.26-.07v.48l0,.73-.49,1.25L288,83.24l-1.64,2.11-1.68,1.15-.26.17c-.19.29.06.8.57,1.13s1.07.36,1.26.07Z"/><path class="cls-15" d="M289.71,78.6v.48A.51.51,0,0,1,289.71,78.6Z"/><path class="cls-15" d="M299.21,99l1-1.78,1.78-2,1.83-1.75,1-.79.74-.3h0l.3-.12c.24-.25.09-.8-.34-1.22s-1-.56-1.22-.31l-.1.47-.16.72L303.34,93l-1.62,1.89-2,1.76-1.87.8-.28.12c-.24.25-.09.79.34,1.22s1,.56,1.22.31Z"/><path class="cls-15" d="M304.32,90.69l-.1.47A.51.51,0,0,1,304.32,90.69Z"/><path class="cls-15" d="M297.84,97.47l-.28.12A.43.43,0,0,1,297.84,97.47Z"/><path class="cls-15" d="M305.58,92.35l.3-.12A.44.44,0,0,1,305.58,92.35Z"/><path class="cls-15" d="M299.12,99.12l.1-.17A.41.41,0,0,1,299.12,99.12Z"/><path class="cls-15" d="M320.63,153.2l-.47.09A.51.51,0,0,1,320.63,153.2Z"/><path class="cls-15" d="M311.85,149.92l-.22-.21A.43.43,0,0,1,311.85,149.92Z"/><path class="cls-15" d="M311,151.77l2,.23,2.53.85,2.33,1,1.12.61.56.56h0l.23.23c.33.13.77-.23,1-.79s.13-1.12-.19-1.25l-.47.09-.72.14-1.32-.21-2.38-.74-2.41-1.16-1.47-1.4-.22-.21c-.33-.13-.77.23-1,.79s-.13,1.12.19,1.25Z"/><path class="cls-15" d="M310.84,151.75l.19,0A.41.41,0,0,1,310.84,151.75Z"/><path class="cls-15" d="M319.61,155l.23.23A.44.44,0,0,1,319.61,155Z"/><path class="cls-15" d="M308.53,163.83l-.22-.21A.43.43,0,0,1,308.53,163.83Z"/><path class="cls-15" d="M307.7,165.68l2,.23,2.53.85,2.33,1,1.12.61.56.56h0l.23.23c.33.13.77-.23,1-.79s.13-1.12-.19-1.25l-.47.09-.72.14-1.32-.21-2.38-.74L310,165.23l-1.47-1.4-.22-.21c-.33-.13-.77.23-1,.79s-.13,1.12.19,1.25Z"/><path class="cls-15" d="M317.31,167.11l-.47.09A.51.51,0,0,1,317.31,167.11Z"/><path class="cls-15" d="M316.28,168.92l.23.23A.44.44,0,0,1,316.28,168.92Z"/><path class="cls-15" d="M307.51,165.66l.19,0A.41.41,0,0,1,307.51,165.66Z"/><path class="cls-15" d="M247.79,190.57l0,.19A.41.41,0,0,1,247.79,190.57Z"/><path class="cls-15" d="M247.77,190.76l-.16,2-.77,2.56-.92,2.36-.57,1.14-.54.58h0l-.22.24c-.12.33.25.76.82,1s1.13.09,1.24-.23l-.11-.47-.16-.72.17-1.33.67-2.4L248.3,193l1.35-1.52.21-.23c.12-.33-.25-.76-.82-1s-1.13-.09-1.24.23Z"/><path class="cls-15" d="M249.65,191.52l.21-.23A.43.43,0,0,1,249.65,191.52Z"/><path class="cls-15" d="M244.81,199.44l-.22.24A.44.44,0,0,1,244.81,199.44Z"/><path class="cls-15" d="M246.65,200.41l-.11-.47A.51.51,0,0,1,246.65,200.41Z"/><path class="cls-15" d="M179.75,151.82l.21-.43A.51.51,0,0,1,179.75,151.82Z"/><path class="cls-15" d="M187.63,146.75l.3-.05A.43.43,0,0,1,187.63,146.75Z"/><path class="cls-15" d="M186.78,144.84l-.13.14A.41.41,0,0,1,186.78,144.84Z"/><path class="cls-15" d="M178.91,149.91l-.32,0A.44.44,0,0,1,178.91,149.91Z"/><path class="cls-15" d="M186.64,145l-1.4,1.49L183,148l-2.19,1.27-1.16.53-.79.12h0l-.32,0c-.3.18-.28.75,0,1.26s.82.78,1.12.59l.21-.43.32-.66,1-.93,2-1.46,2.37-1.24,2-.34.3-.05c.3-.18.28-.75,0-1.26s-.82-.78-1.12-.59Z"/><path class="cls-15" d="M181.5,134.89l-.13.14A.41.41,0,0,1,181.5,134.89Z"/><path class="cls-15" d="M182.38,136.79l.3-.05A.43.43,0,0,1,182.38,136.79Z"/><path class="cls-15" d="M173.69,140l-.32.05A.44.44,0,0,1,173.69,140Z"/><path class="cls-15" d="M174.54,141.93l.21-.44A.51.51,0,0,1,174.54,141.93Z"/><path class="cls-15" d="M181.37,135l-1.38,1.5-2.18,1.54-2.18,1.29-1.15.54-.79.12h0l-.32.05c-.29.19-.27.75.06,1.26s.83.77,1.12.58l.21-.44.32-.66,1-.94,2-1.48,2.36-1.26,2-.36.3-.05c.29-.19.27-.75-.06-1.26s-.83-.77-1.12-.58Z"/><path class="cls-15" d="M232.52,185.6l.21-.23A.43.43,0,0,1,232.52,185.6Z"/><path class="cls-15" d="M230.65,184.83l-.16,2-.77,2.56-.92,2.36-.57,1.14-.54.58h0l-.22.24c-.12.33.25.76.82,1s1.13.09,1.24-.23l-.11-.47-.16-.72.17-1.33.67-2.4,1.08-2.45,1.35-1.52.21-.23c.12-.33-.25-.76-.82-1s-1.13-.09-1.24.23Z"/><path class="cls-15" d="M229.53,194.48l-.11-.47A.51.51,0,0,1,229.53,194.48Z"/><path class="cls-15" d="M227.68,193.51l-.22.24A.44.44,0,0,1,227.68,193.51Z"/><path class="cls-15" d="M230.66,184.64l0,.19A.41.41,0,0,1,230.66,184.64Z"/><path class="cls-15" d="M62.66,184.84l0,.48A.51.51,0,0,1,62.66,184.84Z"/><path class="cls-15" d="M64.11,186.33l.29-.16A.44.44,0,0,1,64.11,186.33Z"/><path class="cls-15" d="M58.53,193.85l.08-.18A.41.41,0,0,1,58.53,193.85Z"/><path class="cls-15" d="M57.06,192.36l-.27.16A.43.43,0,0,1,57.06,192.36Z"/><path class="cls-15" d="M58.61,193.67l.79-1.89,1.52-2.19,1.6-2,.9-.91.7-.39h0l.29-.16c.21-.28,0-.8-.49-1.17s-1-.44-1.25-.16l0,.48-.07.73L62,187.27l-1.38,2.08-1.78,2-1.75,1-.27.16c-.21.28,0,.8.49,1.17s1,.44,1.25.16Z"/><path class="cls-15" d="M23,154.24l1.4-1.49,2.2-1.51L28.81,150l1.16-.53.79-.11h0l.32,0c.3-.18.28-.75,0-1.26s-.82-.78-1.12-.6l-.21.43-.32.66-1,.93-2,1.45L24,152.13l-2,.34-.3.05c-.3.18-.28.75,0,1.26s.82.78,1.12.6Z"/><path class="cls-15" d="M29.93,147.42l-.21.43A.51.51,0,0,1,29.93,147.42Z"/><path class="cls-15" d="M22,152.47l-.3.05A.43.43,0,0,1,22,152.47Z"/><path class="cls-15" d="M30.76,149.33l.32,0A.44.44,0,0,1,30.76,149.33Z"/><path class="cls-15" d="M22.88,154.38l.13-.14A.41.41,0,0,1,22.88,154.38Z"/><path class="cls-15" d="M18.11,137.94l-.3-.08A.43.43,0,0,1,18.11,137.94Z"/><path class="cls-15" d="M27.37,138.55l.32.09A.44.44,0,0,1,27.37,138.55Z"/><path class="cls-15" d="M18.31,140l1.88-.8,2.62-.51,2.52-.29,1.27,0,.77.21h0l.32.09c.35-.05.56-.58.47-1.17s-.44-1-.78-1l-.37.31-.56.48-1.26.47-2.43.52-2.67.18-2-.49-.3-.08c-.35.05-.56.57-.47,1.17s.44,1,.78,1Z"/><path class="cls-15" d="M18.13,140l.18-.08A.41.41,0,0,1,18.13,140Z"/><path class="cls-15" d="M27.37,136.47l-.37.31A.51.51,0,0,1,27.37,136.47Z"/><path class="cls-15" d="M40.91,87.35l-.15-.27A.43.43,0,0,1,40.91,87.35Z"/><path class="cls-15" d="M48.35,93.06,47.87,93A.51.51,0,0,1,48.35,93.06Z"/><path class="cls-15" d="M39.58,88.88l1.88.81,2.17,1.55,1.94,1.63.89.91.37.7h0l.16.29c.27.22.8,0,1.17-.47s.45-1,.18-1.25L47.87,93l-.73-.08-1.2-.59-2.05-1.41-2-1.81-1-1.77-.15-.27c-.27-.22-.8,0-1.17.47s-.45,1-.18,1.25Z"/><path class="cls-15" d="M39.41,88.8l.18.08A.41.41,0,0,1,39.41,88.8Z"/><path class="cls-15" d="M46.84,94.49l.16.29A.44.44,0,0,1,46.84,94.49Z"/><path class="cls-15" d="M52.41,79.77l.09.17A.41.41,0,0,1,52.41,79.77Z"/><path class="cls-15" d="M54.49,79.56l0-.31A.43.43,0,0,1,54.49,79.56Z"/><path class="cls-15" d="M52.5,79.94l1,1.8.75,2.56.52,2.48L54.89,88l-.14.78h0l-.06.32c.08.34.63.5,1.21.36s1-.54.91-.87l-.35-.34L56,87.79l-.59-1.21-.75-2.37-.43-2.64.3-2,0-.31c-.08-.34-.62-.5-1.21-.36s-1,.54-.91.87Z"/><path class="cls-15" d="M56.82,88.64l-.35-.34A.51.51,0,0,1,56.82,88.64Z"/><path class="cls-15" d="M54.75,88.83l-.06.32A.44.44,0,0,1,54.75,88.83Z"/><path class="cls-15" d="M159.37,95.29l-.12.16A.41.41,0,0,1,159.37,95.29Z"/><path class="cls-15" d="M153.16,103l.16-.45A.51.51,0,0,1,153.16,103Z"/><path class="cls-15" d="M159.25,95.45,158,97.08l-2,1.75-2,1.51-1.09.66-.77.2h0l-.32.08c-.27.22-.19.78.18,1.25s.9.68,1.18.46l.16-.45.25-.69.85-1,1.84-1.68,2.22-1.5,2-.57.3-.09c.27-.22.19-.78-.18-1.25s-.9-.68-1.18-.46Z"/><path class="cls-15" d="M160.43,97.09l.3-.09A.43.43,0,0,1,160.43,97.09Z"/><path class="cls-15" d="M152.12,101.21l-.32.08A.44.44,0,0,1,152.12,101.21Z"/><path class="cls-15" d="M136.18,74.15l.28-.13A.43.43,0,0,1,136.18,74.15Z"/><path class="cls-15" d="M130,81.22l.08-.47A.51.51,0,0,1,130,81.22Z"/><path class="cls-15" d="M134.74,72.74l-.93,1.82-1.69,2.07-1.75,1.83-1,.83-.72.33h0l-.3.14c-.23.26-.06.8.39,1.2s1,.52,1.24.26l.08-.47.12-.72.66-1.17,1.53-2L134.35,75l1.83-.89.28-.13c.23-.26.06-.8-.39-1.2s-1-.52-1.24-.26Z"/><path class="cls-15" d="M134.82,72.56l-.09.17A.41.41,0,0,1,134.82,72.56Z"/><path class="cls-15" d="M128.68,79.62l-.3.14A.44.44,0,0,1,128.68,79.62Z"/><circle class="cls-15" cx="65.66" cy="192.41" r="2.16"/><circle class="cls-15" cx="128.69" cy="195.73" r="2.16"/><circle class="cls-15" cx="225.28" cy="79.87" r="2.16"/><circle class="cls-15" cx="295.44" cy="89.89" r="2.16"/><circle class="cls-15" cx="314.57" cy="160.08" r="2.16"/><circle class="cls-15" cx="238.21" cy="191.71" r="2.16"/><circle class="cls-15" cx="180.99" cy="141.77" r="2.16"/><circle class="cls-15" cx="25.15" cy="143.92" r="2.16"/><circle class="cls-15" cx="49.25" cy="87.74" r="2.16"/><circle class="cls-15" cx="161.07" cy="104.22" r="2.16"/><circle class="cls-15" cx="129.42" cy="70.31" r="2.16"/><ellipse class="cls-16" cx="256.3" cy="134.36" rx="49.25" ry="44.12"/><ellipse class="cls-16" cx="99.66" cy="135.89" rx="49.25" ry="44.12"/><rect class="cls-17" x="69.78" y="49.57" width="13.69" height="50.55"/><rect class="cls-18" x="115.53" y="49.57" width="13.39" height="50.55"/><polygon class="cls-19" points="115.53 49.57 115.53 100.13 104.95 100.13 104.95 57.09 108.38 57.09 108.38 49.57 115.53 49.57"/><polygon class="cls-20" points="113.66 24.35 113.66 36.05 108.38 36.05 89.7 36.05 80.98 36.05 80.98 31.32 86.17 35.59 90.71 24.35 113.66 24.35"/><rect class="cls-18" x="104.95" y="49.57" width="3.43" height="7.52"/><polygon class="cls-18" points="108.38 36.05 108.38 49.57 104.95 49.57 104.95 57.09 89.7 57.09 89.7 52.5 89.7 36.05 108.38 36.05"/><polygon class="cls-21" points="104.95 57.09 104.95 100.13 89.7 100.13 89.7 97.45 89.7 57.09 104.95 57.09"/><polygon class="cls-20" points="90.81 24.11 90.71 24.35 80.98 24.35 80.98 31.32 58.68 12.91 63.13 12.91 63.13 1.25 90.81 24.11"/><polygon class="cls-20" points="90.71 24.35 86.17 35.59 80.98 31.32 80.98 24.35 90.71 24.35"/><polygon class="cls-18" points="89.7 57.09 89.7 97.45 83.48 97.45 83.48 52.5 89.7 52.5 89.7 57.09"/><polygon class="cls-20" points="63.13 1.25 63.13 12.91 58.68 12.91 57.87 12.24 62.51 0.74 63.13 1.25"/><polygon class="cls-22" points="63.13 0.5 63.13 1.25 62.51 0.74 57.87 12.24 58.68 12.91 0.5 12.91 0.5 0.5 63.13 0.5"/><polyline class="cls-23" points="89.7 52.5 83.48 52.5 83.48 97.45 89.7 97.45"/><polyline class="cls-23" points="89.7 57.09 89.7 97.45 89.7 100.13 104.95 100.13"/><line class="cls-23" x1="115.53" y1="49.57" x2="108.38" y2="49.57"/><line class="cls-23" x1="104.95" y1="100.12" x2="115.53" y2="100.12"/><rect class="cls-23" x="115.53" y="49.57" width="13.39" height="50.55"/><polyline class="cls-23" points="89.7 36.05 89.7 52.5 89.7 57.09 104.95 57.09 108.38 57.09 108.38 49.57 108.38 36.05"/><polyline class="cls-23" points="80.98 31.32 80.98 36.05 89.7 36.05 108.38 36.05 113.66 36.05 113.66 24.35 90.71 24.35"/><polyline class="cls-23" points="90.71 24.35 90.81 24.11 63.13 1.25"/><line class="cls-23" x1="58.68" y1="12.91" x2="80.98" y2="31.32"/><polyline class="cls-23" points="58.68 12.91 0.5 12.91 0.5 0.5 63.13 0.5 63.13 1.25"/><rect class="cls-24" x="89.7" y="17.37" width="18.93" height="6.21"/><polygon class="cls-24" points="176.95 181.89 147.97 149.19 147.97 117.56 183.02 101.95 212 134.65 209.78 148.57 191.07 127.89 170.09 132.65 167.84 158.09 186.55 178.77 176.95 181.89"/><path class="cls-24" d="M177.5,111.37c-3.12,1.44-4.77,4.49-3.68,6.81s4.5,3,7.62,1.61,4.77-4.49,3.68-6.81S180.62,109.93,177.5,111.37Z"/><path class="cls-25" d="M178.49,113.47c-1.56.72-2.38,2.24-1.84,3.41s2.25,1.52,3.81.8,2.38-2.24,1.84-3.41S180,112.75,178.49,113.47Z"/><polygon class="cls-26" points="191.32 153.86 207.28 146.23 200.42 138.7 191.32 153.86"/><polygon class="cls-26" points="191.69 163.31 178.03 168.79 184.11 175.94 191.69 163.31"/></g></g></svg>